<svg xmlns="http://www.w3.org/2000/svg" width="27" height="27" fill="none"><g clip-path="url(#a)"><path fill="#fff" d="M0 13.5C0 6.044 6.044 0 13.5 0S27 6.044 27 13.5 20.956 27 13.5 27 0 20.956 0 13.5Z"/><g clip-path="url(#b)"><mask id="c" width="57" height="29" x="-15" y="-1" maskUnits="userSpaceOnUse" style="mask-type:luminance"><path fill="#fff" d="M-14.128-.313v27.627h55.256V-.313h-55.256Z"/></mask><g mask="url(#c)"><path fill="#012169" d="M-14.128-.313v27.627h55.256V-.313h-55.256Z"/><path fill="#000" d="m-14.128-.313 55.256 27.627L-14.128-.313Zm55.256 0-55.256 27.627L41.128-.313Z"/><path stroke="#fff" stroke-width="5.526" d="m-14.128-.313 55.256 27.627m0-27.627-55.256 27.627"/><mask id="d" width="57" height="29" x="-15" y="-1" maskUnits="userSpaceOnUse" style="mask-type:luminance"><path fill="#fff" d="M13.5 13.5h27.628v13.814L13.5 13.501Zm0 0v13.814h-27.628L13.5 13.501Zm0 0h-27.628V-.313L13.5 13.5Zm0 0V-.313h27.628L13.5 13.5Z"/></mask><g mask="url(#d)"><path fill="#000" d="m-14.128-.313 55.256 27.627L-14.128-.313Zm55.256 0-55.256 27.627L41.128-.313Z"/><path stroke="#C8102E" stroke-width="3.684" d="m-14.128-.313 55.256 27.627m0-27.627-55.256 27.627"/></g><path fill="#000" d="M13.5-.313v27.627V-.313ZM-14.128 13.5h55.256-55.256Z"/><path stroke="#fff" stroke-width="9.209" d="M13.5-.313v27.627m-27.628-13.813h55.256"/><path fill="#000" d="M13.5-.313v27.627V-.313ZM-14.128 13.5h55.256-55.256Z"/><path stroke="#C8102E" stroke-width="5.526" d="M13.5-.313v27.627m-27.628-13.813h55.256"/></g></g></g><defs><clipPath id="a"><path fill="#fff" d="M0 13.5C0 6.044 6.044 0 13.5 0S27 6.044 27 13.5 20.956 27 13.5 27 0 20.956 0 13.5Z"/></clipPath><clipPath id="b"><path fill="#fff" d="M-14.128-.313h55.256v27.628h-55.256z"/></clipPath></defs></svg>