<?xml version="1.0" encoding="UTF-8"?> <svg xmlns="http://www.w3.org/2000/svg" width="32" height="32" viewBox="0 0 32 32" fill="none"><rect width="32" height="32" fill="#E6EAEA"></rect><path d="M17.5 6H14.5C9.815 6 6 9.815 6 14.5H8C8 10.915 10.915 8 14.5 8H17.5C21.085 8 24 10.915 24 14.5V17.5C24 21.085 21.085 24 17.5 24V26C22.185 26 26 22.185 26 17.5V14.5C26 9.815 22.185 6 17.5 6Z" fill="#516969"></path><path d="M15 10V16.46L18.85 19.76L20.15 18.24L17 15.54V10H15Z" fill="#516969"></path><path d="M10.5009 19C11.1659 19 11.7959 19.26 12.2709 19.73L13.6859 18.315C12.8359 17.465 11.7059 17 10.5059 17C9.30586 17 8.17586 17.47 7.32086 18.32C6.47086 19.17 6.00586 20.3 6.00586 21.5C6.00586 22.7 6.47586 23.83 7.32586 24.685C8.17586 25.535 9.30586 26 10.5059 26C11.7059 26 12.8359 25.53 13.6859 24.685L12.2709 23.27C11.8009 23.74 11.1709 24 10.5009 24C9.83086 24 9.20586 23.74 8.73086 23.27C8.50586 23.045 8.33586 22.785 8.21086 22.5H11.0009V20.5H8.21086C8.33586 20.22 8.50586 19.955 8.73086 19.73C9.20086 19.26 9.83086 19 10.5009 19Z" fill="#516969"></path></svg> 