<?xml version="1.0" encoding="UTF-8"?> <svg xmlns="http://www.w3.org/2000/svg" width="204" height="198" viewBox="0 0 204 198" fill="none"><path d="M149.381 102.904C146.807 99.4972 137.975 94.8459 137.975 94.8459C141.799 94.5474 146.062 93.2008 146.062 93.2008C149.907 91.8906 150.054 89.9762 150.054 89.9762C150.324 87.938 146.588 86.2638 146.588 86.2638C142.472 84.0874 134.202 82.879 134.202 82.879C137.719 80.9646 139.869 79.1958 139.869 79.1958C143.43 76.0876 142.457 74.5808 142.457 74.5808C141.953 72.7392 138.078 72.3243 138.078 72.3243C134.524 71.8439 128.668 72.8484 128.668 72.8484C130.912 69.995 131.717 67.3599 131.717 67.3599C132.331 65.2417 131.505 64.2372 131.505 64.2372C130.539 62.5921 127.11 63.3055 127.11 63.3055C122.073 64.4774 118.6 66.7922 118.6 66.7922C119.236 64.5356 119.126 61.2309 119.126 61.2309C118.987 59.9716 118.709 58.3193 117.613 57.5186C116.194 56.4777 114.198 57.3293 112.875 58.1446C111.552 58.9671 110.426 60.1027 109.395 61.2528C109.212 61.4566 108.247 62.3446 108.291 62.5557C107.947 61.3401 107.538 60.1463 107.055 58.9744C106.339 57.2274 104.547 55.1019 102.507 55C100.467 55.1019 98.6761 57.2274 97.9596 58.9744C97.477 60.1463 97.0676 61.3401 96.724 62.5557C96.7678 62.3446 95.8027 61.4566 95.6199 61.2528C94.589 60.1027 93.4631 58.9671 92.1397 58.1446C90.8163 57.3293 88.8203 56.4777 87.4019 57.5186C86.3051 58.3193 86.0273 59.9716 85.8884 61.2309C85.8884 61.2309 85.7787 64.5356 86.4148 66.7922C86.4148 66.7922 82.9419 64.4774 77.9043 63.3055C77.9043 63.3055 74.4825 62.5848 73.5101 64.2372C73.5101 64.2372 72.6912 65.2417 73.2981 67.3599C73.2981 67.3599 74.1023 69.995 76.3469 72.8484C76.3469 72.8484 70.4905 71.8439 66.9371 72.3243C66.9371 72.3243 63.062 72.7392 62.5575 74.5808C62.5575 74.5808 61.5851 76.0876 65.1458 79.1958C65.1458 79.1958 67.2954 80.9646 70.8122 82.879C70.8122 82.879 62.5429 84.0874 58.4266 86.2638C58.4266 86.2638 54.6904 87.938 54.9609 89.9762C54.9609 89.9762 55.1072 91.8906 58.953 93.2008C58.953 93.2008 63.2156 94.5474 67.0395 94.8459C67.0395 94.8459 58.2072 99.4972 55.6336 102.904C55.6336 102.904 53.5645 104.957 54.0836 106.835C54.0836 106.835 54.5296 109.208 60.8174 108.778C60.8174 108.778 65.7088 108.48 71.653 106.74C71.6311 106.747 71.6164 106.755 71.6164 106.755C71.6164 106.755 65.7234 113.4 64.0198 116.953C64.0198 116.953 60.1886 122.972 62.4917 125.324C62.4917 125.324 63.5592 126.721 67.7267 125.44C67.7267 125.44 73.649 123.438 79.9296 118.365C79.9296 118.365 77.3047 125.622 77.0269 131.292C77.0269 131.292 76.4566 136.839 79.33 137.982C79.33 137.982 81.7428 139.176 86.3051 134.473C86.3051 134.473 91.8107 128.497 94.9546 122.441C95.3421 125.804 95.8905 129.196 96.7532 132.472C97.2942 134.532 97.9596 136.563 98.9028 138.477C99.6047 139.904 100.687 141.898 102.5 142C104.313 141.898 105.395 139.904 106.097 138.477C107.04 136.563 107.706 134.524 108.247 132.472C109.11 129.196 109.658 125.804 110.045 122.441C113.189 128.505 118.695 134.473 118.695 134.473C123.257 139.176 125.67 137.982 125.67 137.982C128.543 136.839 127.973 131.292 127.973 131.292C127.695 125.629 125.07 118.365 125.07 118.365C131.351 123.438 137.273 125.44 137.273 125.44C141.441 126.721 142.508 125.324 142.508 125.324C144.811 122.972 140.98 116.953 140.98 116.953C139.277 113.4 133.384 106.755 133.384 106.755C133.384 106.755 133.369 106.755 133.347 106.74C139.291 108.48 144.183 108.778 144.183 108.778C150.463 109.208 150.916 106.835 150.916 106.835C151.436 104.957 149.366 102.904 149.366 102.904H149.381ZM139.101 102.147C139.101 102.147 138.165 105.706 124.478 101.696C124.478 101.696 116.765 99.2934 113.409 97.3717C113.409 97.3717 120.472 109.288 121.152 118.809C121.152 118.809 121.605 123.467 119.389 124.319C119.389 124.319 116.94 125.396 111.99 119.18C111.99 119.18 106.039 111.995 102.544 101.324C99.049 111.995 93.0975 119.18 93.0975 119.18C88.1403 125.396 85.6983 124.319 85.6983 124.319C83.4829 123.467 83.9362 118.809 83.9362 118.809C84.6162 109.288 91.6791 97.3717 91.6791 97.3717C88.3231 99.2934 80.6095 101.696 80.6095 101.696C66.9225 105.706 65.9866 102.147 65.9866 102.147C64.8972 99.2352 72.7936 94.6202 72.7936 94.6202C78.7963 90.6968 88.0014 87.8507 88.0014 87.8507C77.2828 84.7934 73.3273 81.132 73.3273 81.132C70.0079 78.3514 71.0973 77.0484 71.0973 77.0484C72.7716 74.2387 82.1595 76.0075 82.1595 76.0075C89.0908 77.3032 92.8416 79.1303 92.8416 79.1303C89.9462 73.802 89.2882 69.2088 89.2882 69.2088C88.3597 63.3855 90.8967 62.8833 90.8967 62.8833C92.7685 62.2354 95.481 64.8632 95.481 64.8632C100.745 70.257 102.537 75.6363 102.537 75.6363C102.537 75.6363 104.328 70.257 109.592 64.8632C109.592 64.8632 112.312 62.2427 114.176 62.8833C114.176 62.8833 116.721 63.3855 115.785 69.2088C115.785 69.2088 115.127 73.7947 112.232 79.1303C112.232 79.1303 115.982 77.3032 122.914 76.0075C122.914 76.0075 132.301 74.2387 133.976 77.0484C133.976 77.0484 135.065 78.3514 131.746 81.132C131.746 81.132 127.79 84.7934 117.072 87.8507C117.072 87.8507 126.277 90.6968 132.28 94.6202C132.28 94.6202 140.176 99.2352 139.087 102.147H139.101Z" fill="#072929"></path></svg> 