<?xml version="1.0" encoding="UTF-8"?> <svg xmlns="http://www.w3.org/2000/svg" width="210" height="198" viewBox="0 0 210 198" fill="none"><path d="M104.499 113.079C101.94 114.614 99.0742 115.331 96.106 115.331C93.1378 115.331 90.2719 114.614 87.7131 113.079C85.1544 111.646 83.005 109.497 81.572 106.938C80.1391 104.379 79.3203 101.513 79.3203 98.5451C79.3203 95.5769 80.1391 92.711 81.572 90.1522C83.005 87.5934 85.1544 85.4441 87.7131 84.0111C90.2719 82.5782 93.1378 81.7594 96.106 81.7594C99.0742 81.7594 101.94 82.5782 104.499 84.0111C101.94 85.4441 99.893 87.5934 98.3577 90.1522C96.9248 92.711 96.106 95.5769 96.106 98.5451C96.106 101.513 96.9248 104.379 98.3577 106.938C99.893 109.497 102.042 111.646 104.499 113.079Z" fill="#072929"></path><path d="M129.781 98.5449C129.781 100.797 129.371 102.946 128.553 104.993C127.734 107.04 126.506 108.882 124.868 110.418C123.333 111.953 121.49 113.181 119.443 114.102C117.396 114.921 115.247 115.331 112.995 115.331C110.027 115.331 107.059 114.512 104.5 112.976C107.059 111.544 109.106 109.394 110.641 106.835C112.074 104.277 112.893 101.411 112.893 98.4425C112.893 95.4743 112.176 92.6085 110.641 90.0497C109.208 87.4909 107.059 85.3415 104.5 83.9086C107.059 82.4757 109.925 81.6569 112.893 81.6569C115.861 81.6569 118.727 82.3733 121.286 83.9086C123.844 85.3415 125.994 87.4909 127.427 90.0497C129.064 92.7108 129.781 95.5767 129.781 98.5449Z" fill="#072929"></path><path d="M104.499 142.044C95.9019 142.044 87.5091 139.486 80.3445 134.675C73.1798 129.865 67.6529 123.109 64.2753 115.126C61 107.245 60.1812 98.545 61.8188 90.0498C63.5588 81.6569 67.6529 73.8782 73.794 67.7371C79.8327 61.6983 87.6114 57.6043 96.0043 55.8643C104.397 54.1243 113.199 55.0455 121.183 58.3207C129.166 61.596 135.921 67.2253 140.732 74.39C145.542 81.5546 148.101 89.9474 148.101 98.545C148.101 110.111 143.495 121.165 135.307 129.353C127.119 137.439 116.065 142.044 104.499 142.044ZM104.499 64.0524C97.6419 64.0524 90.989 66.0995 85.3597 69.8865C79.7304 73.6735 75.2269 79.0981 72.6681 85.3416C70.0069 91.6874 69.3928 98.545 70.7234 105.3C72.054 111.953 75.3292 118.094 80.1398 123.007C84.9503 127.818 91.0914 131.093 97.8466 132.423C104.499 133.754 111.459 133.037 117.805 130.479C124.151 127.92 129.473 123.416 133.26 117.787C137.047 112.158 139.094 105.403 139.094 98.6473C139.094 89.538 135.41 80.7358 128.962 74.2876C122.513 67.7371 113.711 64.0524 104.499 64.0524Z" fill="#072929"></path></svg> 