<?xml version="1.0" encoding="UTF-8"?> <svg xmlns="http://www.w3.org/2000/svg" width="256" height="198" viewBox="0 0 256 198" fill="none"><path d="M150.394 72.1958V114.448L135.009 72.1958H119.624L106.606 107.273C105.028 98.5035 95.9541 95.3147 88.8532 92.9231C84.1193 91.3287 78.9908 89.3357 78.9908 86.5455C78.9908 84.5524 81.7523 82.5594 86.8807 82.958C90.4312 83.3566 93.5872 83.3566 99.8991 86.5455L106.211 75.7832C100.294 72.5944 92.4037 71 86.0917 71C78.5963 71 72.2844 73.3916 68.3394 77.3776C65.578 80.1678 64.3945 83.7552 64 87.7413C64 93.3217 65.9725 97.3077 70.3119 100.497C73.8624 102.888 78.2018 104.483 82.1468 105.678C87.2752 107.273 91.2202 108.867 91.2202 111.657C90.8257 115.245 86.8807 116.042 84.1193 116.042C79.3853 116.441 75.4404 115.643 69.5229 112.056L64 122.818C69.9174 126.406 76.2294 128 83.7248 128C88.8532 128 96.7431 126.406 101.083 122.42L100.294 126.007H115.284L118.046 119.231C123.963 120.825 130.67 121.224 136.587 119.231L138.56 126.007H165.385V110.063H170.908C184.716 110.063 193 103.287 193 91.3287C193 77.7762 185.11 72.1958 168.147 72.1958H150.394ZM121.596 107.273L127.119 89.3357H127.514L133.037 107.273C129.092 108.469 125.147 108.469 121.596 107.273ZM165.385 98.1049V83.7552H169.33C174.459 83.7552 178.404 85.3497 178.404 90.5315C178.404 96.1119 174.459 98.1049 169.33 98.1049H165.385Z" fill="#072929"></path></svg> 