<?xml version="1.0" encoding="UTF-8"?> <svg xmlns="http://www.w3.org/2000/svg" width="101" height="36" viewBox="0 0 101 36" fill="none"><g clip-path="url(#clip0_6203_87)"><path d="M28.4675 29.6929C26.5807 29.6929 24.9136 29.3569 23.4662 28.6849C22.0188 28.0129 20.8751 26.9338 20.0351 25.4477C19.1951 23.9486 18.7751 22.0295 18.7751 19.6904V8.97076H24.7068V19.4966C24.7068 22.624 25.9604 24.1877 28.4675 24.1877C30.9875 24.1877 32.2475 22.624 32.2475 19.4966V8.97076H38.1598V19.6904C38.1598 22.0295 37.7398 23.9486 36.8998 25.4477C36.0598 26.9338 34.9161 28.0129 33.4687 28.6849C32.0213 29.3569 30.3542 29.6929 28.4675 29.6929Z" fill="#531900"></path><path d="M67.2367 8.33105C69.7309 8.33105 71.5983 9.19691 72.8389 10.9286C74.0795 12.6474 74.6998 15.0963 74.6998 18.2754V29.0532H68.8069V18.4111C68.8069 16.8215 68.5096 15.6584 67.9152 14.9218C67.3207 14.1723 66.5001 13.7975 65.4533 13.7975C64.7684 13.7975 64.1223 14.0237 63.5149 14.476C62.9204 14.9154 62.4423 15.5357 62.0804 16.3369C61.7315 17.1381 61.557 18.0557 61.557 19.0895V29.0532H55.6641V18.4111C55.6641 16.8086 55.3669 15.6391 54.7724 14.9024C54.1909 14.1658 53.3702 13.7975 52.3106 13.7975C51.6256 13.7975 50.9859 14.0237 50.3915 14.476C49.797 14.9154 49.3189 15.5421 48.957 16.3563C48.5952 17.1575 48.4142 18.0686 48.4142 19.0895V29.0532H42.5213V8.97075H48.1041L48.1816 11.3938C48.7115 10.4892 49.4998 9.75259 50.5466 9.18398C51.6062 8.61536 52.7887 8.33105 54.0939 8.33105C55.6576 8.33105 56.9693 8.67353 58.029 9.35845C59.1016 10.0434 59.9287 11.0449 60.5103 12.3631C61.4019 10.9674 62.4035 9.94644 63.5149 9.30029C64.6263 8.65413 65.8669 8.33105 67.2367 8.33105Z" fill="#531900"></path><path d="M84.9543 8.97074V11.5101C85.678 10.4892 86.5761 9.70735 87.6487 9.16458C88.7213 8.62181 89.8521 8.35043 91.041 8.35043C92.9149 8.35043 94.582 8.82858 96.0423 9.78489C97.5155 10.7412 98.6592 12.0335 99.4734 13.6618C100.3 15.2901 100.714 17.0735 100.714 19.012C100.714 20.9634 100.3 22.7597 99.4734 24.4009C98.6592 26.0292 97.522 27.3215 96.0617 28.2778C94.6013 29.2341 92.9601 29.7123 91.138 29.7123C89.8844 29.7123 88.7278 29.4345 87.6681 28.8788C86.6213 28.3231 85.7749 27.5865 85.1287 26.6689L85.245 29.092V35.9154H79.2746V8.97074H84.9543ZM90.0137 24.2265C90.8795 24.2265 91.6743 24.0261 92.398 23.6255C93.1346 23.212 93.7226 22.6111 94.162 21.8228C94.6013 21.0344 94.821 20.0975 94.821 19.012C94.821 17.9652 94.6013 17.0477 94.162 16.2594C93.7355 15.4711 93.154 14.8701 92.4174 14.4566C91.6807 14.0301 90.8666 13.8169 89.9749 13.8169C89.0961 13.8169 88.2884 14.0495 87.5518 14.5148C86.8281 14.9671 86.253 15.5938 85.8266 16.3951C85.4001 17.1834 85.1869 18.0557 85.1869 19.012C85.1869 20.02 85.4066 20.9246 85.846 21.7258C86.2853 22.5141 86.8733 23.128 87.61 23.5674C88.3466 24.0068 89.1478 24.2265 90.0137 24.2265Z" fill="#531900"></path><path fill-rule="evenodd" clip-rule="evenodd" d="M3.84525 8.96094H9.87161C12.3753 8.96094 14.4049 10.9906 14.4049 13.4942V22.1335C14.4049 29.7916 8.19682 35.9997 0.538763 35.9997H0V30.152H0.538763C4.96724 30.152 8.55723 26.562 8.55723 22.1335V14.8086H3.84525V8.96094Z" fill="#531900"></path><path d="M14.4871 7.51076C16.5611 7.51076 18.2424 5.82942 18.2424 3.75538C18.2424 1.68134 16.5611 0 14.4871 0C12.413 0 10.7317 1.68134 10.7317 3.75538C10.7317 5.82942 12.413 7.51076 14.4871 7.51076Z" fill="#531900"></path></g><defs><clipPath id="clip0_6203_87"><rect width="101" height="36" fill="white"></rect></clipPath></defs></svg> 