<?xml version="1.0" encoding="UTF-8"?> <svg xmlns="http://www.w3.org/2000/svg" width="93" height="26" viewBox="0 0 93 26" fill="none"><g clip-path="url(#clip0_1143_37938)"><path d="M20.1327 6.20319C18.3928 4.42164 16.5341 5.57472 15.3711 6.76579L9.8774 12.3914L4.38311 18.0172C3.21996 19.208 2.00252 21.0176 3.83374 22.8924C5.66496 24.7679 7.43215 23.521 8.59505 22.33L14.0891 16.7044L19.5831 11.0789C20.7463 9.8877 21.8723 7.9846 20.1327 6.20319Z" fill="#D7B1DA"></path><path d="M9.62514 5.74361L11.9517 8.12594L14.32 5.70089C14.4808 5.53594 14.6441 5.38275 14.8083 5.23835C14.5602 3.95711 13.8463 2.79883 11.9507 2.79883C10.0514 2.79883 9.33832 3.96165 9.0918 5.24562C9.26895 5.40277 9.44602 5.56018 9.62514 5.74361Z" fill="#D7B1DA"></path><path d="M14.3201 23.4412L11.9533 21.0176L9.62783 23.3985C9.4513 23.5794 9.27559 23.7446 9.10059 23.9C9.36721 25.2061 10.122 26.4024 11.9523 26.4024C13.7874 26.4024 14.5412 25.1996 14.8061 23.8894C14.6433 23.746 14.4804 23.6052 14.3201 23.4412Z" fill="#D7B1DA"></path><path d="M8.64461 11.5195H4.15916C2.5144 11.5195 0.403809 12.0499 0.403809 14.5692C0.403809 16.449 1.57879 17.2209 2.85867 17.492C3.0102 17.3129 8.64461 11.5195 8.64461 11.5195Z" fill="#D7B1DA"></path><path d="M21.067 11.6406C20.9249 11.8097 15.2788 17.6178 15.2788 17.6178H19.7006C21.3454 17.6178 23.456 17.2199 23.456 14.5682C23.456 12.6237 22.3207 11.8931 21.067 11.6406Z" fill="#D7B1DA"></path><path d="M10.1181 10.0115L10.9194 9.19093L8.59425 6.80985C7.43099 5.61896 5.66407 4.37219 3.83285 6.24725C2.49004 7.6223 2.78829 8.96047 3.50054 10.0469C3.71748 10.0303 10.1181 10.0115 10.1181 10.0115Z" fill="#D7B1DA"></path><path d="M13.8005 19.1275L12.9971 19.9502L15.3656 22.3752C16.5287 23.5663 18.3873 24.7191 20.1269 22.9378C21.4251 21.6085 21.1272 20.2122 20.4095 19.0938C20.1785 19.1108 13.8005 19.1275 13.8005 19.1275Z" fill="#D7B1DA"></path><path d="M69.5842 6.75C69.187 6.75 68.4917 6.85177 67.7301 7.19073C66.737 7.63146 66.2072 7.97051 65.9424 8.41106C64.9492 7.22474 63.6578 6.85177 62.2011 6.85177C57.9301 6.85177 54.8843 10.547 54.8843 15.8015C54.8843 20.2088 57.2018 23.4632 60.4794 23.4632C61.4725 23.4632 62.3666 23.0562 63.4262 22.0394C64.2537 21.2597 64.6512 20.7513 64.6512 20.2766C64.6512 19.9375 64.4194 19.7002 64.0882 19.7002C63.6246 19.7002 63.128 20.1069 62.499 20.1069C61.1415 20.1069 60.2144 17.971 60.2144 14.8182C60.2144 11.6656 61.4393 9.52981 63.2934 9.52981C64.5183 9.52981 65.4455 10.4788 65.4455 12.1063V22.0055C65.4455 23.0901 66.4386 23.3953 68.2596 23.3953C70.0475 23.3953 70.7427 23.0562 70.7427 22.0055V7.835C70.743 7.15672 70.3125 6.75 69.5842 6.75Z" fill="#D7B1DA"></path><path d="M49.1556 6.75C47.8644 6.75 46.507 7.22474 45.3148 8.17387C44.6528 8.71637 44.0898 9.32654 44.0898 9.83511C44.0898 10.2757 44.3877 10.5129 44.8183 10.5129C45.5468 10.5129 45.7786 10.2079 46.4738 10.2079C47.169 10.2079 47.5001 10.8859 47.5001 12.0725V22.0057C47.5001 23.0903 48.4934 23.3955 50.3142 23.3955C52.1021 23.3955 52.7973 23.0565 52.7973 22.0057V11.1233C52.7974 8.54667 51.3075 6.75 49.1556 6.75Z" fill="#D7B1DA"></path><path d="M39.848 6.75C38.4907 6.75 37.2656 7.22474 36.0738 8.17387C35.4117 8.71637 34.8489 9.32654 34.8489 9.83511C34.8489 10.2757 35.1466 10.5129 35.5772 10.5129C36.3054 10.5129 36.5374 10.2079 37.1665 10.2079C37.7956 10.2079 38.1267 10.8859 38.1267 12.0725V22.0057C38.1267 23.0903 39.1198 23.3955 40.9406 23.3955C42.7286 23.3955 43.4237 23.0565 43.4237 22.0057V11.1233C43.4237 8.54667 41.9339 6.75 39.848 6.75Z" fill="#D7B1DA"></path><path d="M32.9059 6.75C32.4093 6.75 31.8134 6.85177 31.0517 7.19073C29.3963 7.93659 28.7673 8.41106 28.7673 9.46205V22.0056C28.7673 23.0902 29.7604 23.3954 31.5814 23.3954C33.3695 23.3954 34.0645 23.0563 34.0645 22.0056V7.835C34.0647 7.15672 33.6343 6.75 32.9059 6.75Z" fill="#D7B1DA"></path><path d="M91.1403 18.8187C89.8157 19.1577 89.419 19.2594 88.955 19.2594C88.3923 19.2594 88.194 19.0898 88.194 18.4797V10.0044H91.2067C92.0009 10.0044 92.2989 9.69933 92.2989 8.8858C92.2989 8.20779 92.0009 7.86847 91.2067 7.86847H88.194V4.58009C88.194 3.56298 87.8629 3.15625 87.1673 3.15625C86.5055 3.15625 85.5782 3.76653 83.5918 5.49556C81.5725 7.25848 80.4133 8.41106 80.4133 9.22468C80.4133 9.69933 80.7447 10.0044 81.2743 10.0044H82.8966V19.1577C82.8966 21.836 84.1877 23.3954 86.4391 23.3954C87.9293 23.3954 89.0214 22.8189 90.3129 21.8021C91.5046 20.8528 92.2657 20.1069 92.2657 19.463C92.2666 18.9205 91.869 18.6153 91.1403 18.8187Z" fill="#D7B1DA"></path><path d="M77.733 -0.404297C77.4682 -0.404297 76.6406 -0.302582 75.8788 0.0364248C74.2233 0.748307 73.5945 1.25675 73.5945 2.30776V22.0043C73.5945 23.0893 74.5876 23.3943 76.4086 23.3943C78.1966 23.3943 78.8916 23.0553 78.8916 22.0043V0.680577C78.8916 0.00243901 78.4613 -0.404297 77.733 -0.404297Z" fill="#D7B1DA"></path></g><defs><clipPath id="clip0_1143_37938"><rect width="93" height="26" fill="white"></rect></clipPath></defs></svg> 