<?xml version="1.0" encoding="UTF-8"?> <svg xmlns="http://www.w3.org/2000/svg" width="24" height="24" fill="none"><path fill="#072929" d="M12 22c5.523 0 10-4.477 10-10S17.523 2 12 2 2 6.477 2 12s4.477 10 10 10Z"></path><path fill="#072929" d="M12 22c5.523 0 10-4.477 10-10S17.523 2 12 2 2 6.477 2 12s4.477 10 10 10Z"></path><path fill="url(#a)" d="M17.655 17.655 16.24 16.24a5.956 5.956 0 0 0 1.755-4.245c0-1.605-.625-3.11-1.755-4.245a5.947 5.947 0 0 0-4.245-1.755c-1.605 0-3.11.625-4.245 1.755a5.947 5.947 0 0 0-1.755 4.245c0 1.605.625 3.11 1.755 4.245l-1.415 1.415A7.95 7.95 0 0 1 3.99 12a7.93 7.93 0 0 1 2.345-5.655A7.95 7.95 0 0 1 11.99 4a7.93 7.93 0 0 1 5.655 2.345A7.95 7.95 0 0 1 19.99 12a7.93 7.93 0 0 1-2.345 5.655h.01Z"></path><path fill="url(#b)" d="M12 9h3.5v3.5L12 9Z"></path><defs><linearGradient id="a" x1="4" x2="20" y1="10.83" y2="10.83" gradientUnits="userSpaceOnUse"><stop stop-color="#E993FF"></stop><stop offset=".5" stop-color="#58FF9B"></stop><stop offset="1" stop-color="#2DFFCC"></stop></linearGradient><linearGradient id="b" x1="11.83" x2="15.765" y1="10.135" y2="10.795" gradientUnits="userSpaceOnUse"><stop stop-color="#E993FF"></stop><stop offset=".5" stop-color="#58FF9B"></stop><stop offset="1" stop-color="#2DFFCC"></stop></linearGradient></defs></svg> 