<?xml version="1.0" encoding="UTF-8"?> <svg xmlns="http://www.w3.org/2000/svg" width="24" height="24" viewBox="0 0 24 24" fill="none"><path d="M18.6 10.6449H17.215C17.22 10.5899 17.225 10.4999 17.225 10.3699C17.225 6.85488 14.395 4.00488 10.9 4.00488C7.875 4.00488 5.35 6.13988 4.725 8.99488C2.585 9.08488 1 11.4699 1 13.9699C1 17.0249 3.46 19.5049 6.5 19.5049H18.6C21.03 19.5049 23 17.5199 23 15.0749C23 12.6299 21.03 10.6449 18.6 10.6449Z" fill="#072929"></path><path d="M9.03 11.73L8.345 11L6 13.195L8.365 15.56L9.075 14.85L7.44 13.215L9.03 11.73Z" fill="url(#paint0_linear_472_15506)"></path><path d="M13.1348 11L12.4248 11.705L14.0598 13.34L12.4698 14.83L13.1548 15.56L15.4998 13.365L13.1348 11Z" fill="url(#paint1_linear_472_15506)"></path><defs><linearGradient id="paint0_linear_472_15506" x1="6.14" y1="13.925" x2="13.395" y2="11.81" gradientUnits="userSpaceOnUse"><stop offset="0.08" stop-color="#E993FF"></stop><stop offset="0.38" stop-color="#58FF9B"></stop><stop offset="1" stop-color="#2DFFCC"></stop></linearGradient><linearGradient id="paint1_linear_472_15506" x1="8.3248" y1="14.685" x2="15.7848" y2="12.51" gradientUnits="userSpaceOnUse"><stop stop-color="#E993FF"></stop><stop offset="0.5" stop-color="#58FF9B"></stop><stop offset="1" stop-color="#2DFFCC"></stop></linearGradient></defs></svg> 