<?xml version="1.0" encoding="UTF-8"?> <svg xmlns="http://www.w3.org/2000/svg" width="24" height="25" viewBox="0 0 24 25" fill="none"><path d="M18.5 7.5H18V7.25C18 4.63 15.87 2.5 13.25 2.5H10.75C8.13 2.5 6 4.63 6 7.25V7.5H5.5C3.57 7.5 2 9.07 2 11V14C2 15.93 3.57 17.5 5.5 17.5H8V7.25C8 5.735 9.235 4.5 10.75 4.5H13.25C14.765 4.5 16 5.735 16 7.25V17.75C16 19.265 14.765 20.5 13.25 20.5H10.75V22.5H13.25C15.87 22.5 18 20.37 18 17.75V17.5H18.5C20.43 17.5 22 15.93 22 14V11C22 9.07 20.43 7.5 18.5 7.5ZM6 15.5H5.5C4.675 15.5 4 14.825 4 14V11C4 10.175 4.675 9.5 5.5 9.5H6V15.5ZM20 14C20 14.825 19.325 15.5 18.5 15.5H18V9.5H18.5C19.325 9.5 20 10.175 20 11V14Z" fill="#072929"></path></svg> 