<?xml version="1.0" encoding="UTF-8"?> <svg xmlns="http://www.w3.org/2000/svg" width="107" height="28" viewBox="0 0 107 28" fill="none"><path d="M27.4319 14.6386C30.0757 14.6031 32.2582 16.7146 32.2936 19.3584C32.2582 22.0023 30.0757 24.1315 27.4319 24.096C24.788 24.1315 22.6055 22.02 22.5701 19.3584C22.6055 16.7146 24.788 14.6031 27.4319 14.6386ZM74.3818 14.6386C74.9496 14.6386 75.5174 14.7273 76.0498 14.9225L69.9814 21.3812C69.6797 20.7602 69.5201 20.0682 69.5201 19.3762C69.5733 16.7324 71.738 14.6209 74.3818 14.6386ZM8.88962 27.9997C11.3383 27.9997 13.6095 27.0415 15.3129 25.3203L15.029 25.0364L15.3306 25.3026L18.8794 21.5054C19.944 25.3558 23.4573 28.0174 27.4673 27.9997C30.0579 27.9997 32.4001 26.8995 34.0148 25.1607L42.9222 15.6323C44.1465 14.3547 46.1515 14.266 47.4823 15.4371C48.7776 16.5727 48.9018 18.5245 47.7662 19.8198C47.7485 19.8375 47.7307 19.8553 47.713 19.873L47.0387 20.6005L40.3493 27.7512H45.7612L48.0856 25.2671L49.2212 24.0428L50.6407 22.5346L50.6584 22.5168L57.0107 15.721C58.235 14.4434 60.2401 14.3724 61.5531 15.5435C62.8484 16.6791 62.9726 18.6309 61.837 19.9262C61.8193 19.944 61.8193 19.944 61.8015 19.9617L54.5088 27.769H59.9207L62.2983 25.2316L64.7115 22.641L64.747 22.5878L65.7761 21.4877C66.823 25.3558 70.354 28.0351 74.3641 27.9997C76.8127 27.9997 79.0839 27.0415 80.7873 25.3203L80.3083 24.8413L80.8228 25.2849L84.3361 21.4522C85.383 25.3381 88.914 28.0351 92.9241 27.9997V24.096C90.2802 24.1315 88.0978 22.0023 88.0623 19.3584V14.4789H92.9241V10.5753H88.0623V3.90363H84.0522V15.8984L77.8241 22.712C76.5643 23.9718 74.7012 24.4332 72.9978 23.9186L81.8874 14.4434L80.4679 13.1304C78.8 11.5867 76.6176 10.735 74.3464 10.7527C71.667 10.7527 69.2716 11.9238 67.657 13.7514L67.6215 13.7159L66.0955 15.3484C65.6874 14.3192 65.0486 13.3965 64.2147 12.669C62.7774 11.4092 60.9143 10.7527 58.998 10.8414C57.2414 10.9124 55.5735 11.6222 54.2959 12.8287L54.1717 12.9529L54.0652 13.0594L54.012 13.1126L53.9943 13.1304L52.0247 15.2419C51.6166 14.2128 50.9778 13.2901 50.1439 12.5626C48.7066 11.3028 46.8435 10.6463 44.9272 10.735C43.0464 10.806 41.2897 11.6044 39.9767 12.9529L39.9235 13.0062L39.9057 13.0239L35.9843 17.2114C34.9197 13.3611 31.4065 10.6995 27.4141 10.7172C24.6993 10.7172 22.2862 11.9061 20.6537 13.7692L17.4953 17.1937L14.1595 20.7602L12.3497 22.6943C11.427 23.5992 10.1849 24.1138 8.88962 24.1138C6.2458 24.1493 4.06332 22.02 4.02783 19.3762C4.06332 16.7324 6.2458 14.6209 8.88962 14.6563C10.8059 14.6563 12.5448 15.7742 13.3433 17.5131L16.1646 14.4789C14.4789 12.1367 11.7641 10.7527 8.87188 10.7527C3.9746 10.7527 0 14.6209 0 19.3762C0.0177438 24.1315 3.99235 27.9997 8.88962 27.9997ZM101.441 3.22936C101.885 3.88588 102.47 4.45368 103.144 4.87953C102.47 5.30538 101.902 5.87318 101.441 6.5297C100.997 5.87318 100.412 5.32313 99.7377 4.87953C100.43 4.47143 100.997 3.90362 101.441 3.22936ZM100.447 9.79455H102.47C102.47 7.62981 104.262 5.87319 106.498 5.87319V3.92137C104.298 3.95686 102.506 2.20023 102.47 0H100.447C100.447 2.16474 98.6553 3.92137 96.4196 3.92137V5.87319C98.6376 5.87319 100.447 7.61207 100.447 9.79455Z" fill="white"></path></svg> 