<?xml version="1.0" encoding="UTF-8"?> <svg xmlns="http://www.w3.org/2000/svg" width="276" height="198" viewBox="0 0 276 198" fill="none"><path d="M196.823 75.0502C184.701 75.0502 176.785 83.3767 176.785 97.1433C176.785 114.241 188.907 119.125 197.598 119.125C204.129 119.125 210.329 116.461 214.812 111.743L209.222 106.136C206.232 108.8 202.801 110.41 197.708 110.41C190.955 110.41 186.416 106.469 186.416 101.029H216.528C216.473 100.973 221.731 75.0502 196.823 75.0502ZM186.416 93.5906C186.416 86.2633 191.952 82.7661 197.874 82.7661C203.797 82.7661 209.166 86.3743 209.166 93.5906H186.416Z" fill="#072929"></path><path d="M85.9517 92.8687C82.077 92.3692 70.9513 92.8134 70.9513 87.7063C70.9513 84.7087 75.6562 83.0434 79.9183 83.0434C84.4572 82.9878 88.8853 84.2647 92.6493 86.7071L98.4613 80.934C96.7453 79.5463 90.3798 75.0499 79.9183 75.0499C70.3977 75.0499 61.8181 80.0459 61.8181 88.0394C61.8181 100.307 76.5972 100.307 82.7412 100.918C86.5052 101.306 89.8817 101.528 89.8817 105.192C89.8817 108.634 84.6786 110.521 80.6379 110.521C74.051 110.521 70.121 108.356 66.2463 104.859L60.0469 111.132C65.416 116.35 72.6672 119.181 80.1397 119.125C91.2101 119.125 99.2362 114.24 99.2362 104.415C99.2362 97.9202 94.8634 94.0345 85.9517 92.8687Z" fill="#072929"></path><path d="M117.724 75.0501C111.58 74.9945 105.547 77.104 100.731 80.9342L106.543 86.7629C109.809 84.3204 113.739 83.0436 117.78 83.0991C125.142 83.0991 127.356 86.0412 127.356 89.3718V93.5351H114.237C109.366 93.5351 99.8457 94.7563 99.8457 105.47C99.8457 113.352 104.329 119.125 115.068 119.125C120.437 119.125 124.533 117.405 127.356 114.018V118.293H136.876V90.038C136.876 80.1571 130.843 75.0501 117.724 75.0501ZM127.411 102.861C127.411 111.021 121.599 110.577 116.451 110.577C111.304 110.577 107.872 109.189 107.872 105.525C107.872 102.139 110.584 100.974 116.23 100.974H127.411V102.861Z" fill="#072929"></path><path d="M166.267 75.9384V80.6567C163.001 76.9375 159.126 75.0502 153.868 75.0502C144.845 75.0502 140.196 80.1016 138.646 85.5416C138.037 87.54 137.871 91.3702 137.871 97.0323C137.871 102.361 137.926 107.246 139.753 110.965C142.355 116.183 148.609 119.125 153.868 119.125C158.96 119.125 163.278 117.127 166.267 113.685V116.35C166.267 119.458 165.215 121.512 163.222 123.122C161.23 124.732 158.739 125.731 155.252 125.731C152.097 125.731 149.108 124.01 147.392 122.789L140.971 129.228C145.122 132.614 150.049 134.89 155.418 134.946C160.565 135.057 165.603 133.392 169.643 130.116C173.463 127.119 175.898 121.401 175.898 115.406V75.9384H166.267ZM166.267 97.0323C166.267 100.307 166.211 102.75 165.935 104.027C165.326 106.747 162.226 110.355 156.58 110.355C155.141 110.355 147.945 109.522 147.115 103.249C146.893 101.196 146.783 99.0862 146.838 97.0323C146.838 92.1474 147.06 90.5931 147.281 89.3718C147.779 86.9294 150.99 83.2657 156.58 83.2657C163.388 83.2657 165.603 87.9286 165.935 89.7604C166.211 92.1474 166.322 94.5898 166.267 97.0323Z" fill="#072929"></path></svg> 