<?xml version="1.0" encoding="UTF-8"?> <svg xmlns="http://www.w3.org/2000/svg" width="100" height="35" viewBox="0 0 100 35" fill="none"><path d="M24.0316 10.7036C22.2917 8.92202 20.4331 10.0751 19.27 11.2662L13.7763 16.8918L8.28203 22.5176C7.11888 23.7084 5.90145 25.518 7.73267 27.3928C9.56388 29.2683 11.3311 28.0214 12.494 26.8304L17.988 21.2047L23.482 15.5793C24.6453 14.3881 25.7713 12.485 24.0316 10.7036Z" fill="#D7B1DA"></path><path d="M13.5236 10.2436L15.8502 12.6259L18.2184 10.2008C18.3792 10.0359 18.5425 9.88271 18.7067 9.73831C18.4587 8.45707 17.7448 7.29878 15.8491 7.29878C13.9499 7.29878 13.2368 8.46161 12.9902 9.74558C13.1674 9.90272 13.3445 10.0601 13.5236 10.2436Z" fill="#D7B1DA"></path><path d="M18.2175 27.9411L15.8507 25.5175L13.5253 27.8984C13.3488 28.0793 13.173 28.2446 12.998 28.3999C13.2647 29.706 14.0194 30.9023 15.8497 30.9023C17.6849 30.9023 18.4387 29.6996 18.7036 28.3893C18.5408 28.2459 18.3778 28.1052 18.2175 27.9411Z" fill="#D7B1DA"></path><path d="M12.5435 16.0198H8.05808C6.41332 16.0198 4.30273 16.5502 4.30273 19.0695C4.30273 20.9493 5.47772 21.7212 6.7576 21.9923C6.90913 21.8132 12.5435 16.0198 12.5435 16.0198Z" fill="#D7B1DA"></path><path d="M24.9659 16.1405C24.8239 16.3096 19.1777 22.1177 19.1777 22.1177H23.5995C25.2443 22.1177 27.3549 21.7198 27.3549 19.068C27.3549 17.1236 26.2196 16.393 24.9659 16.1405Z" fill="#D7B1DA"></path><path d="M14.017 14.5111L14.8183 13.6906L12.4932 11.3095C11.3299 10.1186 9.563 8.87183 7.73178 10.7469C6.38896 12.1219 6.68722 13.4601 7.39947 14.5465C7.61641 14.5299 14.017 14.5111 14.017 14.5111Z" fill="#D7B1DA"></path><path d="M17.698 23.6271L16.8945 24.4498L19.263 26.8749C20.4261 28.066 22.2848 29.2188 24.0244 27.4375C25.3225 26.1081 25.0247 24.7119 24.307 23.5934C24.076 23.6105 17.698 23.6271 17.698 23.6271Z" fill="#D7B1DA"></path><path d="M73.4831 11.2502C73.0859 11.2502 72.3907 11.3519 71.629 11.6909C70.6359 12.1316 70.1061 12.4707 69.8413 12.9112C68.8481 11.7249 67.5567 11.3519 66.1 11.3519C61.829 11.3519 58.7832 15.0471 58.7832 20.3017C58.7832 24.7089 61.1007 27.9634 64.3784 27.9634C65.3715 27.9634 66.2655 27.5564 67.3251 26.5396C68.1526 25.7598 68.5501 25.2514 68.5501 24.7768C68.5501 24.4376 68.3184 24.2003 67.9871 24.2003C67.5235 24.2003 67.027 24.6071 66.3979 24.6071C65.0404 24.6071 64.1133 22.4712 64.1133 19.3184C64.1133 16.1658 65.3382 14.03 67.1924 14.03C68.4173 14.03 69.3444 14.979 69.3444 16.6064V26.5057C69.3444 27.5902 70.3375 27.8955 72.1585 27.8955C73.9465 27.8955 74.6416 27.5564 74.6416 26.5057V12.3352C74.6419 11.6569 74.2115 11.2502 73.4831 11.2502Z" fill="#D7B1DA"></path><path d="M53.054 11.2502C51.7628 11.2502 50.4054 11.7249 49.2133 12.674C48.5512 13.2165 47.9883 13.8267 47.9883 14.3353C47.9883 14.7758 48.2861 15.0131 48.7167 15.0131C49.4453 15.0131 49.677 14.7081 50.3722 14.7081C51.0675 14.7081 51.3985 15.3861 51.3985 16.5727V26.5059C51.3985 27.5905 52.3918 27.8956 54.2126 27.8956C56.0005 27.8956 56.6957 27.5567 56.6957 26.5059V15.6235C56.6958 13.0468 55.2059 11.2502 53.054 11.2502Z" fill="#D7B1DA"></path><path d="M43.7472 11.2502C42.3898 11.2502 41.1648 11.7249 39.973 12.674C39.3108 13.2165 38.748 13.8267 38.748 14.3353C38.748 14.7758 39.0457 15.0131 39.4764 15.0131C40.2046 15.0131 40.4366 14.7081 41.0657 14.7081C41.6948 14.7081 42.0258 15.3861 42.0258 16.5727V26.5059C42.0258 27.5905 43.0189 27.8956 44.8398 27.8956C46.6278 27.8956 47.3229 27.5567 47.3229 26.5059V15.6235C47.3229 13.0468 45.833 11.2502 43.7472 11.2502Z" fill="#D7B1DA"></path><path d="M36.8045 11.2502C36.308 11.2502 35.7121 11.3519 34.9503 11.6909C33.295 12.4368 32.666 12.9112 32.666 13.9622V26.5058C32.666 27.5904 33.6591 27.8955 35.4801 27.8955C37.2682 27.8955 37.9632 27.5565 37.9632 26.5058V12.3352C37.9634 11.6569 37.533 11.2502 36.8045 11.2502Z" fill="#D7B1DA"></path><path d="M95.0395 23.3189C93.7148 23.6579 93.3182 23.7596 92.8542 23.7596C92.2915 23.7596 92.0932 23.59 92.0932 22.9799V14.5046H95.1059C95.9001 14.5046 96.198 14.1995 96.198 13.386C96.198 12.708 95.9001 12.3687 95.1059 12.3687H92.0932V9.08028C92.0932 8.06318 91.762 7.65645 91.0665 7.65645C90.4046 7.65645 89.4774 8.26673 87.4909 9.99576C85.4716 11.7587 84.3125 12.9113 84.3125 13.7249C84.3125 14.1995 84.6438 14.5046 85.1735 14.5046H86.7958V23.6579C86.7958 26.3362 88.0868 27.8956 90.3382 27.8956C91.8284 27.8956 92.9206 27.3191 94.212 26.3023C95.4038 25.353 96.1648 24.6071 96.1648 23.9632C96.1657 23.4207 95.7682 23.1155 95.0395 23.3189Z" fill="#D7B1DA"></path><path d="M81.6307 4.09561C81.3659 4.09561 80.5383 4.19733 79.7765 4.53633C78.121 5.24822 77.4922 5.75666 77.4922 6.80767V26.5042C77.4922 27.5892 78.4853 27.8942 80.3063 27.8942C82.0943 27.8942 82.7893 27.5552 82.7893 26.5042V5.18049C82.7893 4.50235 82.359 4.09561 81.6307 4.09561Z" fill="#D7B1DA"></path></svg> 