<?xml version="1.0" encoding="UTF-8"?> <svg xmlns="http://www.w3.org/2000/svg" width="24" height="24" viewBox="0 0 24 24" fill="none"><path d="M6 6H18C19.38 6 20.5 7.12 20.5 8.5V20.5H3.5V8.5C3.5 7.12 4.62 6 6 6Z" fill="#072929"></path><path d="M22 10L19.84 4.38C19.64 3.855 19.035 3.5 18.345 3.5H5.655C4.97 3.5 4.365 3.86 4.16 4.38L2 10H22Z" fill="#072929"></path><path d="M17 15.5H14V20.5H17V15.5Z" fill="url(#paint0_linear_472_18308)"></path><path d="M17 9.5C17 10.88 18.12 12 19.5 12C20.88 12 22 10.88 22 9.5H17Z" fill="url(#paint1_linear_472_18308)"></path><path d="M14.5 12C15.88 12 17 10.88 17 9.5H12C12 10.88 13.12 12 14.5 12Z" fill="url(#paint2_linear_472_18308)"></path><path d="M9.5 12C10.88 12 12 10.88 12 9.5H7C7 10.88 8.12 12 9.5 12Z" fill="url(#paint3_linear_472_18308)"></path><path d="M4.5 12C5.88 12 7 10.88 7 9.5H2C2 10.88 3.12 12 4.5 12Z" fill="url(#paint4_linear_472_18308)"></path><defs><linearGradient id="paint0_linear_472_18308" x1="12.94" y1="20.56" x2="18.08" y2="15.42" gradientUnits="userSpaceOnUse"><stop stop-color="#E993FF"></stop><stop offset="0.5" stop-color="#58FF9B"></stop><stop offset="1" stop-color="#2DFFCC"></stop></linearGradient><linearGradient id="paint1_linear_472_18308" x1="2.91" y1="13.44" x2="22.4" y2="10.045" gradientUnits="userSpaceOnUse"><stop offset="0.08" stop-color="#E993FF"></stop><stop offset="0.38" stop-color="#58FF9B"></stop><stop offset="1" stop-color="#2DFFCC"></stop></linearGradient><linearGradient id="paint2_linear_472_18308" x1="2.76" y1="12.595" x2="22.255" y2="9.2" gradientUnits="userSpaceOnUse"><stop offset="0.08" stop-color="#E993FF"></stop><stop offset="0.38" stop-color="#58FF9B"></stop><stop offset="1" stop-color="#2DFFCC"></stop></linearGradient><linearGradient id="paint3_linear_472_18308" x1="2.615" y1="11.75" x2="22.105" y2="8.355" gradientUnits="userSpaceOnUse"><stop offset="0.08" stop-color="#E993FF"></stop><stop offset="0.38" stop-color="#58FF9B"></stop><stop offset="1" stop-color="#2DFFCC"></stop></linearGradient><linearGradient id="paint4_linear_472_18308" x1="2.465" y1="10.905" x2="21.96" y2="7.51" gradientUnits="userSpaceOnUse"><stop offset="0.08" stop-color="#E993FF"></stop><stop offset="0.38" stop-color="#58FF9B"></stop><stop offset="1" stop-color="#2DFFCC"></stop></linearGradient></defs></svg> 