<?xml version="1.0" encoding="UTF-8"?> <svg xmlns="http://www.w3.org/2000/svg" width="24" height="24" fill="none"><g clip-path="url(#a)"><path fill="#072929" d="m17 3.5-2 2-2-2-2 2-2-2-2 2-2-2H3.5v15a2 2 0 0 0 2 2h12c.55 0 1-.45 1-1v-16H17Z"></path><path fill="url(#b)" d="M7.5 18.5v-1h13v1a2 2 0 0 1-2 2h-13a2 2 0 0 0 2-2Z"></path></g><defs><linearGradient id="b" x1="7.85" x2="20.27" y1="20.6" y2="16.85" gradientUnits="userSpaceOnUse"><stop stop-color="#E993FF"></stop><stop offset=".5" stop-color="#58FF9B"></stop><stop offset="1" stop-color="#2DFFCC"></stop></linearGradient><clipPath id="a"><path fill="#fff" d="M0 0h24v24H0z"></path></clipPath></defs></svg> 