<?xml version="1.0" encoding="UTF-8"?> <svg xmlns="http://www.w3.org/2000/svg" width="24" height="24" fill="none"><path fill="#072929" d="M19.5 5h-15A2.5 2.5 0 0 0 2 7.5v9A2.5 2.5 0 0 0 4.5 19h15a2.5 2.5 0 0 0 2.5-2.5v-9A2.5 2.5 0 0 0 19.5 5Z"></path><path fill="url(#a)" d="M22 7.5H2v3h20v-3Z"></path><path fill="url(#b)" d="M18.75 13h-1.5c-.69 0-1.25.56-1.25 1.25v1.5c0 .69.56 1.25 1.25 1.25h1.5c.69 0 1.25-.56 1.25-1.25v-1.5c0-.69-.56-1.25-1.25-1.25Z"></path><defs><linearGradient id="a" x1="2" x2="22" y1="10.515" y2="7.485" gradientUnits="userSpaceOnUse"><stop stop-color="#E993FF"></stop><stop offset=".5" stop-color="#58FF9B"></stop><stop offset="1" stop-color="#2DFFCC"></stop></linearGradient><linearGradient id="b" x1="15.91" x2="20.105" y1="17.09" y2="12.895" gradientUnits="userSpaceOnUse"><stop stop-color="#E993FF"></stop><stop offset=".5" stop-color="#58FF9B"></stop><stop offset="1" stop-color="#2DFFCC"></stop></linearGradient></defs></svg> 