<?xml version="1.0" encoding="UTF-8"?> <svg xmlns="http://www.w3.org/2000/svg" width="24" height="24" viewBox="0 0 24 24" fill="none"><path d="M20.3251 15.4088L10.8401 5.92383C9.96505 5.04883 8.53505 5.04883 7.66005 5.92383L5.68005 7.90383C4.80505 8.77883 4.80505 10.2088 5.68005 11.0838L15.1601 20.5638C15.6001 21.0038 16.1751 21.2238 16.7501 21.2238C17.3251 21.2238 17.9001 21.0038 18.3401 20.5638L20.3201 18.5838C21.1951 17.7088 21.1951 16.2788 20.3201 15.4038L20.3251 15.4088ZM7.09005 9.32383L9.07005 7.34383C9.12005 7.29383 9.18505 7.26883 9.24505 7.26883C9.30505 7.26883 9.37505 7.29383 9.42005 7.34383L11.5801 9.50383L9.24505 11.8388L7.08505 9.67883C6.99005 9.57883 6.99005 9.42383 7.08505 9.32383H7.09005ZM18.9101 17.1738L16.9301 19.1538C16.8301 19.2538 16.6751 19.2538 16.5751 19.1538L10.6651 13.2438L13.0001 10.9088L18.9101 16.8188C19.0051 16.9188 19.0051 17.0738 18.9101 17.1738Z" fill="#072929"></path><path d="M4.49894 3.00093L2.99988 4.5L4.49894 5.99907L5.99801 4.5L4.49894 3.00093Z" fill="#072929"></path><path d="M14.0015 3.00289L12.5024 4.50195L14.0015 6.00102L15.5006 4.50195L14.0015 3.00289Z" fill="#072929"></path><path d="M4.00151 12.999L2.50244 14.498L4.00151 15.9971L5.50057 14.498L4.00151 12.999Z" fill="#072929"></path></svg> 