<?xml version="1.0" encoding="UTF-8"?> <svg xmlns="http://www.w3.org/2000/svg" width="32" height="32" viewBox="0 0 32 32" fill="none"><rect width="32" height="32" fill="#E6EAEA"></rect><path d="M17.5 6H14.5C9.815 6 6 9.815 6 14.5V17.5C6 22.185 9.815 26 14.5 26H17.5C22.185 26 26 22.185 26 17.5V14.5C26 9.815 22.185 6 17.5 6ZM23.5 12H20.155C19.89 10.53 19.47 9.19 18.9 8.155C20.985 8.615 22.695 10.07 23.5 12ZM24 14.5V17.5C24 17.67 23.985 17.835 23.975 18H20.415C20.47 17.34 20.5 16.67 20.5 16C20.5 15.33 20.47 14.66 20.415 14H23.975C23.99 14.165 24 14.33 24 14.5ZM16 24C15.405 24 14.42 22.61 13.88 20H18.12C17.58 22.61 16.595 24 16 24ZM13.5 16C13.5 15.285 13.535 14.625 13.59 14H18.41C18.465 14.625 18.5 15.285 18.5 16C18.5 16.715 18.465 17.375 18.41 18H13.59C13.535 17.375 13.5 16.715 13.5 16ZM16 8C16.595 8 17.58 9.39 18.12 12H13.88C14.42 9.39 15.405 8 16 8ZM13.105 8.155C12.535 9.19 12.115 10.53 11.85 12H8.505C9.31 10.07 11.025 8.615 13.105 8.155ZM8 14.5C8 14.33 8.015 14.165 8.025 14H11.585C11.53 14.66 11.5 15.33 11.5 16C11.5 16.67 11.53 17.34 11.585 18H8.025C8.01 17.835 8 17.67 8 17.5V14.5ZM8.5 20H11.845C12.11 21.47 12.53 22.81 13.1 23.845C11.015 23.385 9.305 21.93 8.5 20ZM18.895 23.845C19.465 22.81 19.885 21.47 20.15 20H23.495C22.69 21.93 20.975 23.385 18.895 23.845Z" fill="#516969"></path></svg> 