<?xml version="1.0" encoding="UTF-8"?> <svg xmlns="http://www.w3.org/2000/svg" width="116" height="25" viewBox="0 0 116 25" fill="none"><g clip-path="url(#clip0_6201_54)"><path d="M90.9507 13.7324L90.8979 3.97887H90.9507L94.4014 13.7324H96.6549L100 3.97887H100.053L99.9824 13.7324H102.993V0.352112H98.4507L95.4401 8.89084H95.3697L92.4824 0.352112H87.8521V10.1408L87.8345 13.7324H90.9507Z" fill="#072929"></path><path d="M0 6.17958C0 2.95775 2.65845 0.352112 5.9331 0.352112H17.1127C20.3873 0.352112 23.0458 2.95775 23.0458 6.17958V17.2183C23.0458 20.4401 20.3873 23.0458 17.1127 23.0458H5.9331C2.65845 23.0634 0 20.4577 0 17.2359V6.17958Z" fill="#072929"></path><path d="M13.1338 14.6831C13.4331 14.419 13.8909 14.4366 14.1549 14.7183L15.8979 16.5845C16.162 16.8838 16.162 17.3239 15.8627 17.6056C15.5634 17.8697 15.1056 17.8521 14.8416 17.5704L13.0986 15.7042C12.8169 15.4049 12.8345 14.9472 13.1338 14.6831Z" fill="white"></path><path d="M14.5599 13.2746C14.8591 13.0106 15.3169 13.0282 15.5986 13.3098L17.6584 15.4929C17.9401 15.7922 17.9225 16.25 17.6232 16.5141C17.3239 16.7782 16.8662 16.7606 16.5845 16.4789L14.507 14.2958C14.243 14.0141 14.2606 13.5563 14.5599 13.2746Z" fill="white"></path><path d="M9.87674 10.7042C9.70068 10.5458 9.38378 10.8275 9.24293 10.9507L9.19012 11.0035L6.24998 13.9437C5.96829 14.2254 5.49293 14.243 5.21124 13.9613C4.92955 13.6972 4.91195 13.2394 5.19364 12.9578L8.76758 9.26057C8.76758 9.26057 8.76758 9.26058 8.78519 9.24297L9.08448 8.96128L9.84153 8.18663L11.4788 9.98241C11.4788 9.98241 12.588 11.1092 13.6091 10.3345C14.9824 9.29579 14.3486 8.32748 14.0845 7.95776C13.75 7.58804 12.0422 5.80987 12.0422 5.80987L12.7465 5.07043L18.2042 10.7042L17.5 11.4437C17.5 11.4437 16.4612 10.8979 15.8803 11.4437C15.3345 11.9718 15.3169 12.4472 15.3169 12.4824C15.2641 12.4824 14.4014 12.5 14.0317 12.993C13.6443 13.5035 13.75 13.9085 13.75 13.9085C13.75 13.9085 12.9929 13.8556 12.6056 14.3662C12.3767 14.6655 12.2535 15.0352 12.2711 15.4225C12.2711 15.4225 11.2676 15.5106 10.9859 16.4261C10.7218 17.3063 11.0915 17.5528 11.1267 17.5704C11.1267 17.5704 10.7922 18.2923 10.0352 17.7993C9.27814 17.2887 10.4577 16.2852 10.4577 16.2852L12.5704 14.1373C12.5704 14.1373 12.8873 13.7852 12.6936 13.5916C12.5176 13.4155 12.007 13.9085 11.919 13.9789L8.36265 17.6585C8.08096 17.9402 7.62321 17.9578 7.32392 17.6761C7.04223 17.3944 7.02462 16.9366 7.30631 16.6549L11.1267 12.7113C11.1267 12.7113 11.1443 12.6937 11.1619 12.6761C11.2148 12.6056 11.426 12.2887 11.2324 12.1303C11.0563 12.0071 10.7922 12.2359 10.6338 12.3768C10.6162 12.412 10.581 12.4296 10.5634 12.4472L6.56688 16.4965C6.28519 16.7782 5.82744 16.7958 5.52814 16.5141C5.24645 16.25 5.22885 15.7923 5.51054 15.5106L9.50702 11.4613C9.50702 11.4613 9.52462 11.4437 9.54223 11.4261C9.66547 11.3028 10.0528 10.8803 9.87674 10.7042Z" fill="white"></path><path d="M13.3627 8.04579C13.7676 8.46832 13.9261 9.06691 13.4155 9.52466C13.3803 9.54227 13.3627 9.57748 13.3275 9.59508C12.6761 10.1761 12.2007 9.85917 11.7254 9.3486L10.0704 7.57043C9.66551 7.20072 9.3134 7.64086 9.29579 7.67607C9.27819 7.69367 8.32748 8.7148 6.47889 10.6338L5.80988 9.92959L10.581 5.07043L13.3627 8.04579Z" fill="white"></path><path d="M16.1092 11.919C16.4085 11.6549 16.8838 11.6549 17.1479 11.9542L17.9754 12.8169C18.257 13.1162 18.2394 13.574 17.9401 13.838C17.6408 14.1021 17.1655 14.1021 16.9014 13.8028L16.0739 12.9402C15.7923 12.6409 15.8099 12.2007 16.1092 11.919Z" fill="white"></path><path d="M11.7077 16.25C12.007 15.9859 12.4648 16.0035 12.7465 16.2852L13.2394 16.7958C13.5211 17.0774 13.5035 17.5352 13.2042 17.7993C12.9049 18.0634 12.4472 18.0458 12.1655 17.7641L11.6725 17.2535C11.3908 16.9718 11.4084 16.5141 11.7077 16.25Z" fill="white"></path><path d="M35.1937 3.80284C34.912 3.45073 34.5422 3.16904 34.0845 2.97538C33.6444 2.76411 33.2042 2.65848 32.7817 2.65848C32.5704 2.65848 32.3415 2.67608 32.1127 2.7113C31.9014 2.74651 31.6901 2.81693 31.5141 2.94017C31.338 3.0458 31.1796 3.18665 31.0563 3.3627C30.9331 3.52115 30.8803 3.73242 30.8803 3.99651C30.8803 4.22538 30.9331 4.41904 31.0211 4.55989C31.1268 4.71834 31.2676 4.84158 31.4437 4.94721C31.6373 5.05284 31.8662 5.15848 32.1127 5.26411C32.3591 5.35214 32.6584 5.44017 32.9753 5.5458C33.4331 5.70425 33.9084 5.8627 34.4014 6.05637C34.8944 6.23242 35.3521 6.4789 35.757 6.7782C36.162 7.07749 36.4965 7.44721 36.7782 7.90496C37.0422 8.3451 37.1831 8.89087 37.1831 9.55989C37.1831 10.3169 37.0422 10.9859 36.7429 11.5493C36.4613 12.0951 36.0739 12.5528 35.5986 12.9226C35.1056 13.2923 34.5599 13.5564 33.926 13.7324C33.3099 13.9085 32.6584 13.9965 31.9894 13.9965C31.0211 13.9965 30.088 13.8381 29.1725 13.5035C28.2746 13.169 27.5176 12.6937 26.919 12.0775L29.0669 9.92961C29.4014 10.3345 29.8239 10.669 30.3697 10.9507C30.9155 11.2148 31.4613 11.3381 31.9894 11.3381C32.2359 11.3381 32.4648 11.3204 32.6937 11.2676C32.9225 11.2148 33.1162 11.1444 33.2922 11.0212C33.4683 10.9155 33.6091 10.7571 33.7148 10.5634C33.8204 10.3697 33.8732 10.1409 33.8732 9.89439C33.8732 9.64791 33.8028 9.43665 33.6796 9.26059C33.5563 9.08453 33.3627 8.92608 33.1338 8.78524C32.9049 8.62679 32.6056 8.50355 32.2535 8.39791C31.9014 8.27468 31.5141 8.13383 31.0739 8.01059C30.6338 7.86975 30.2113 7.67608 29.7887 7.48242C29.3838 7.28876 29.0141 7.05989 28.6796 6.76059C28.3627 6.4613 28.0986 6.10918 27.8873 5.68665C27.6937 5.26411 27.6056 4.75355 27.6056 4.13735C27.6056 3.39791 27.7641 2.76411 28.0634 2.23594C28.3627 1.70777 28.7676 1.26763 29.2606 0.933126C29.7535 0.598619 30.3169 0.387351 30.9507 0.228901C31.5669 0.07045 32.2007 -0.0175781 32.8521 -0.0175781C33.6091 -0.0175781 34.4014 0.123267 35.1937 0.404957C36.0035 0.686647 36.6901 1.09158 37.2887 1.61975L35.1937 3.80284Z" fill="#072929"></path><path d="M45.4754 3.08099V13.7324H42.2007V3.08099H38.3803V0.352112H49.2958V3.08099H45.4754Z" fill="#072929"></path><path d="M59.4014 13.7324L58.3627 11.0387H53.1162L52.1127 13.7324H48.5563L54.243 0.352112H57.412L63.0282 13.7324H59.4014ZM55.7746 3.89084L54.0493 8.46831H57.4472L55.7746 3.89084Z" fill="#072929"></path><path d="M67.9578 3.08099V5.82746H73.2042V8.48591H67.9578V13.7324H64.7183V0.352112H73.6268V3.08099H67.9578Z" fill="#072929"></path><path d="M79.3662 3.15141V5.89789H84.6127V8.55634H79.3662V13.7324H76.1268V0.352112H85.0352V3.15141H79.3662Z" fill="#072929"></path><path d="M106.215 13.7324V0.352112H115.317V3.06338H109.366V5.56338H114.982V8.1338H109.366V10.9155H115.669V13.7324H106.215Z" fill="#072929"></path><path d="M27.2535 17.324H28.8909C29.1902 17.324 29.4542 17.3592 29.7007 17.4296C29.9472 17.4824 30.1409 17.5881 30.3169 17.7113C30.493 17.8345 30.6338 17.993 30.7218 18.1867C30.8099 18.3803 30.8627 18.5916 30.8627 18.8557C30.8627 19.1197 30.8099 19.3486 30.7218 19.5423C30.6338 19.7359 30.493 19.8944 30.3169 20.0176C30.1409 20.1409 29.9472 20.2289 29.7007 20.2993C29.4542 20.3697 29.1902 20.405 28.8909 20.405H27.8521V23.0634H27.2535V17.324ZM27.8345 19.8944H28.838C29.2958 19.8944 29.6655 19.8064 29.8944 19.6303C30.1409 19.4543 30.2641 19.1902 30.2641 18.8557C30.2641 18.5036 30.1409 18.2395 29.8944 18.081C29.6479 17.9226 29.2958 17.8345 28.8557 17.8345H27.8521V19.8944H27.8345Z" fill="#072929"></path><path d="M35.2112 21.162C35.2112 21.4437 35.1584 21.7078 35.0528 21.9542C34.9472 22.2007 34.8063 22.412 34.6303 22.588C34.4542 22.7641 34.2253 22.9049 33.9788 23.0106C33.7324 23.1162 33.4507 23.1514 33.1514 23.1514C32.8521 23.1514 32.588 23.0986 32.3239 23.0106C32.0774 22.9049 31.8486 22.7641 31.6725 22.588C31.4965 22.412 31.3556 22.2007 31.25 21.9542C31.1443 21.7078 31.1091 21.4437 31.1091 21.162C31.1091 20.8803 31.1619 20.6162 31.25 20.3697C31.3556 20.1232 31.4965 19.912 31.6725 19.7359C31.8486 19.5599 32.0774 19.419 32.3239 19.331C32.5704 19.2254 32.8521 19.1725 33.1514 19.1725C33.4507 19.1725 33.7324 19.2254 33.9788 19.331C34.2253 19.4366 34.4542 19.5599 34.6303 19.7359C34.8063 19.912 34.9472 20.1232 35.0528 20.3697C35.1584 20.6162 35.2112 20.8803 35.2112 21.162ZM34.6127 21.162C34.6127 20.9507 34.5774 20.7571 34.507 20.5634C34.4366 20.3697 34.3486 20.2113 34.2253 20.0704C34.1021 19.9296 33.9436 19.824 33.7676 19.7359C33.5915 19.6479 33.3803 19.6127 33.1514 19.6127C32.9225 19.6127 32.7289 19.6479 32.5352 19.7359C32.3591 19.824 32.2007 19.9296 32.0774 20.0704C31.9542 20.2113 31.8486 20.3697 31.7781 20.5634C31.7077 20.7394 31.6725 20.9507 31.6725 21.162C31.6725 21.3732 31.7077 21.5669 31.7781 21.7606C31.8486 21.9366 31.9542 22.1127 32.0774 22.2535C32.2007 22.3944 32.3591 22.5 32.5352 22.5704C32.7112 22.6409 32.9225 22.6761 33.1514 22.6761C33.3803 22.6761 33.5739 22.6409 33.7676 22.5704C33.9436 22.4824 34.1021 22.3768 34.2253 22.2535C34.3486 22.1127 34.4542 21.9542 34.507 21.7606C34.5774 21.5669 34.6127 21.3732 34.6127 21.162Z" fill="#072929"></path><path d="M36.4965 19.2782L37.4296 22.3592H37.4472L38.4859 19.2782H39.0317L40.088 22.3592H40.1056L41.0211 19.2782H41.6197L40.4049 23.0634H39.7887L38.7676 20H38.7324L37.7289 23.0634H37.1127L35.8979 19.2782H36.4965Z" fill="#072929"></path><path d="M45.493 20.8803C45.4754 20.5282 45.3521 20.2289 45.1409 20C44.9296 19.7711 44.6127 19.6479 44.2254 19.6479C44.0317 19.6479 43.8733 19.6831 43.7148 19.7535C43.5564 19.8239 43.4155 19.912 43.2923 20.0352C43.169 20.1408 43.081 20.2817 43.0106 20.4401C42.9402 20.581 42.905 20.7394 42.8874 20.8979H45.493V20.8803ZM46.0564 21.0563C46.0564 21.0915 46.0564 21.1267 46.0564 21.1796C46.0564 21.2148 46.0564 21.2676 46.0564 21.3204H42.8698C42.8698 21.5141 42.905 21.6901 42.993 21.8486C43.0634 22.0246 43.169 22.1655 43.2923 22.2887C43.4155 22.412 43.574 22.5176 43.7324 22.588C43.9085 22.6584 44.0845 22.6936 44.2782 22.6936C44.5599 22.6936 44.824 22.6232 45.0176 22.5C45.2289 22.3591 45.3874 22.2183 45.5106 22.0422L45.9331 22.3591C45.7043 22.6408 45.4402 22.8521 45.1761 22.9753C44.8944 23.0986 44.6127 23.169 44.2958 23.169C44.0141 23.169 43.75 23.1162 43.5036 23.0282C43.2571 22.9225 43.0458 22.7817 42.8874 22.6056C42.7113 22.4296 42.5705 22.2183 42.4648 21.9718C42.3592 21.7253 42.324 21.4613 42.324 21.1796C42.324 20.8979 42.3768 20.6338 42.4648 20.3873C42.5705 20.1408 42.6937 19.9296 42.8698 19.7535C43.0458 19.5774 43.2571 19.4366 43.4859 19.3486C43.7148 19.2429 43.9789 19.1901 44.243 19.1901C44.5423 19.1901 44.8064 19.2429 45.0352 19.3486C45.2641 19.4542 45.4578 19.5774 45.6162 19.7535C45.7747 19.912 45.8803 20.1232 45.9683 20.3521C46.0212 20.5458 46.0564 20.7922 46.0564 21.0563Z" fill="#072929"></path><path d="M47.2535 20.1056C47.2535 20 47.2535 19.8767 47.2535 19.7007C47.2535 19.5422 47.2359 19.4014 47.2359 19.2605H47.7641C47.7817 19.3662 47.7817 19.4718 47.7817 19.595C47.7817 19.7183 47.7817 19.8239 47.7817 19.8943H47.7993C47.9049 19.6655 48.081 19.4894 48.2922 19.3662C48.5035 19.2253 48.75 19.1549 49.0317 19.1549C49.1021 19.1549 49.1725 19.1549 49.2253 19.1549C49.2782 19.1549 49.3486 19.1725 49.4014 19.1901L49.331 19.7007C49.2958 19.6831 49.2429 19.6831 49.1725 19.6655C49.1021 19.6479 49.0141 19.6479 48.9436 19.6479C48.8028 19.6479 48.6444 19.6831 48.5211 19.7359C48.3803 19.7887 48.257 19.8767 48.1514 20C48.0458 20.1056 47.9753 20.2641 47.9049 20.4401C47.8521 20.6162 47.8169 20.8274 47.8169 21.0915V23.0281H47.2535V20.1056Z" fill="#072929"></path><path d="M53.0105 20.8803C52.9929 20.5282 52.8697 20.2289 52.6584 20C52.4472 19.7711 52.1303 19.6479 51.7429 19.6479C51.5493 19.6479 51.3908 19.6831 51.2324 19.7535C51.0739 19.8239 50.9331 19.912 50.8098 20.0352C50.6866 20.1408 50.5986 20.2817 50.5281 20.4401C50.4577 20.581 50.4225 20.7394 50.4049 20.8979H53.0105V20.8803ZM53.5739 21.0563C53.5739 21.0915 53.5739 21.1267 53.5739 21.1796C53.5739 21.2148 53.5739 21.2676 53.5739 21.3204H50.3873C50.3873 21.5141 50.4225 21.6901 50.5105 21.8486C50.581 22.0246 50.6866 22.1655 50.8098 22.2887C50.9331 22.412 51.0915 22.5176 51.25 22.588C51.426 22.6584 51.6021 22.6936 51.7958 22.6936C52.095 22.6936 52.3415 22.6232 52.5528 22.5C52.7641 22.3591 52.9225 22.2183 53.0457 22.0422L53.4683 22.3591C53.2394 22.6408 52.9753 22.8521 52.7112 22.9753C52.4296 23.0986 52.1479 23.169 51.831 23.169C51.5493 23.169 51.2852 23.1162 51.0387 23.0282C50.7922 22.9225 50.581 22.7817 50.4225 22.6056C50.2465 22.4296 50.1056 22.2183 50 21.9718C49.8943 21.7253 49.8591 21.4613 49.8591 21.1796C49.8591 20.8979 49.9119 20.6338 50 20.3873C50.1056 20.1408 50.2288 19.9296 50.4049 19.7535C50.581 19.5774 50.7922 19.4366 51.0211 19.3486C51.25 19.2429 51.5141 19.1901 51.7781 19.1901C52.0774 19.1901 52.3415 19.2429 52.5704 19.3486C52.7993 19.4542 52.9929 19.5774 53.1514 19.7535C53.3098 19.912 53.4155 20.1232 53.5035 20.3521C53.5387 20.5458 53.5739 20.7922 53.5739 21.0563Z" fill="#072929"></path><path d="M57.9401 22.412C57.7817 22.6585 57.5704 22.8345 57.3063 22.9578C57.0423 23.081 56.7782 23.1514 56.4965 23.1514C56.1972 23.1514 55.9155 23.0986 55.669 22.993C55.4225 22.8873 55.2113 22.7465 55.0352 22.5704C54.8592 22.3944 54.7359 22.1831 54.6303 21.9366C54.5423 21.6902 54.4894 21.4261 54.4894 21.1444C54.4894 20.8627 54.5423 20.5986 54.6303 20.3521C54.7359 20.1057 54.8592 19.8944 55.0352 19.7183C55.2113 19.5423 55.4225 19.4014 55.669 19.2958C55.9155 19.1902 56.1972 19.1373 56.4965 19.1373C56.7782 19.1373 57.0423 19.2078 57.3063 19.331C57.5704 19.4542 57.7817 19.6479 57.9401 19.8944H57.9578V16.9014H58.5211V23.0634H57.9578L57.9401 22.412ZM55.088 21.162C55.088 21.3733 55.1232 21.5669 55.1937 21.7606C55.2641 21.9366 55.3521 22.1127 55.4754 22.2535C55.5986 22.3944 55.757 22.5 55.9331 22.5704C56.1092 22.6409 56.3204 22.6761 56.5493 22.6761C56.7606 22.6761 56.9542 22.6409 57.1479 22.5704C57.3239 22.4824 57.4824 22.3768 57.6232 22.2535C57.7465 22.1127 57.8521 21.9542 57.9225 21.7782C57.993 21.5845 58.0458 21.3909 58.0458 21.1796C58.0458 20.9683 58.0106 20.7571 57.9225 20.581C57.8521 20.3873 57.7465 20.2289 57.6232 20.088C57.5 19.9472 57.3416 19.8416 57.1479 19.7711C56.9718 19.6831 56.7782 19.6479 56.5493 19.6479C56.3204 19.6479 56.1092 19.6831 55.9331 19.7711C55.757 19.8592 55.5986 19.9648 55.4754 20.1057C55.3521 20.2465 55.2641 20.4049 55.1937 20.5986C55.1232 20.7571 55.088 20.9507 55.088 21.162Z" fill="#072929"></path><path d="M62.6408 22.412V23.0458H62.0775V16.9366H62.6408V19.9296H62.6584C62.8169 19.6831 63.0282 19.4895 63.2922 19.3662C63.5563 19.243 63.8204 19.1726 64.1021 19.1726C64.4014 19.1726 64.6831 19.2254 64.912 19.331C65.1584 19.4366 65.3697 19.5775 65.5282 19.7535C65.7042 19.9296 65.8451 20.1409 65.9331 20.3874C66.0387 20.6338 66.0739 20.8979 66.0739 21.1796C66.0739 21.4613 66.0211 21.7254 65.9331 21.9719C65.8451 22.2183 65.7042 22.4296 65.5282 22.6057C65.3521 22.7817 65.1584 22.9226 64.912 23.0282C64.6655 23.1338 64.4014 23.1866 64.1021 23.1866C63.8204 23.1866 63.5563 23.1162 63.2922 22.993C63.0458 22.8521 62.8345 22.6585 62.6408 22.412ZM65.5106 21.162C65.5106 20.9507 65.4753 20.7571 65.4049 20.5634C65.3345 20.3697 65.2465 20.2113 65.1232 20.0704C65 19.9296 64.8591 19.824 64.6655 19.7359C64.4894 19.6479 64.2782 19.6127 64.0493 19.6127C63.838 19.6127 63.6444 19.6479 63.4507 19.7359C63.2746 19.8064 63.1162 19.912 62.9753 20.0528C62.8521 20.1937 62.7465 20.3521 62.6584 20.5458C62.588 20.7219 62.5528 20.9331 62.5528 21.1444C62.5528 21.3557 62.588 21.5669 62.6584 21.743C62.7289 21.919 62.8345 22.0775 62.9753 22.2183C63.0986 22.3592 63.257 22.4648 63.4507 22.5352C63.6267 22.6057 63.8204 22.6409 64.0493 22.6409C64.2782 22.6409 64.4894 22.6057 64.6655 22.5352C64.8415 22.4472 65 22.3416 65.1232 22.2183C65.2465 22.0775 65.3521 21.919 65.4049 21.7254C65.4929 21.5669 65.5106 21.3733 65.5106 21.162Z" fill="#072929"></path><path d="M68.6267 22.4648L69.8415 19.2606H70.4577L68.5387 24.0317C68.4155 24.331 68.2746 24.5599 68.0986 24.7359C67.9225 24.912 67.676 25 67.3415 25C67.1655 25 67.007 24.9824 66.8486 24.9472L66.9014 24.4542C67.0246 24.4894 67.1655 24.5246 67.3063 24.5246C67.5 24.5246 67.6408 24.4718 67.7641 24.3486C67.8697 24.243 67.9753 24.0669 68.0458 23.8556L68.3627 23.0634L66.7253 19.2782H67.3591L68.6267 22.4648Z" fill="#072929"></path><path d="M76.9366 23.0634L74.5951 19.3134H74.5775L74.6127 23.0634H73.2394V17.324H74.8416L77.1831 21.0564H77.2007L77.1655 17.324H78.5387V23.0634H76.9366Z" fill="#072929"></path><path d="M85.8099 20.1761C85.8099 20.6338 85.7218 21.0387 85.5634 21.4261C85.4049 21.7958 85.1761 22.1127 84.8944 22.3944C84.6127 22.6585 84.2782 22.8697 83.8908 23.0106C83.5035 23.1514 83.081 23.2218 82.6232 23.2218C82.1655 23.2218 81.743 23.1514 81.3556 23.0106C80.9683 22.8697 80.6338 22.6585 80.3521 22.3944C80.0704 22.1303 79.8592 21.7958 79.7007 21.4261C79.5423 21.0563 79.4542 20.6338 79.4542 20.1761C79.4542 19.7183 79.5423 19.3134 79.7007 18.9437C79.8592 18.574 80.0704 18.257 80.3521 17.993C80.6338 17.7289 80.9683 17.5352 81.3556 17.3944C81.743 17.2535 82.1655 17.1831 82.6232 17.1831C83.081 17.1831 83.5035 17.2535 83.8908 17.3944C84.2782 17.5352 84.6127 17.7289 84.8944 17.993C85.1761 18.257 85.4049 18.574 85.5634 18.9437C85.7218 19.2958 85.8099 19.7183 85.8099 20.1761ZM84.2958 20.1761C84.2958 19.9296 84.2606 19.7007 84.1725 19.4718C84.0845 19.2606 83.9789 19.0669 83.8204 18.9261C83.6796 18.7676 83.5035 18.6444 83.2923 18.5563C83.081 18.4683 82.8697 18.4155 82.6232 18.4155C82.3768 18.4155 82.1479 18.4683 81.9542 18.5563C81.743 18.6444 81.5845 18.7676 81.4261 18.9261C81.2852 19.0845 81.162 19.2606 81.0739 19.4718C81.0035 19.6831 80.9507 19.912 80.9507 20.1761C80.9507 20.4401 80.9859 20.669 81.0739 20.8979C81.162 21.1092 81.2676 21.3028 81.4084 21.4613C81.5493 21.6197 81.7254 21.743 81.9366 21.831C82.1479 21.919 82.3592 21.9542 82.6056 21.9542C82.8521 21.9542 83.081 21.919 83.2746 21.831C83.4859 21.743 83.6444 21.6197 83.8028 21.4613C83.9437 21.3028 84.0669 21.1268 84.1549 20.8979C84.2606 20.669 84.2958 20.4225 84.2958 20.1761Z" fill="#072929"></path><path d="M98.0458 21.0916C98.0458 21.3205 98.0106 21.5493 97.9578 21.7958C97.905 22.0423 97.8169 22.2712 97.6761 22.4824C97.5352 22.6937 97.3416 22.8521 97.0951 22.993C96.8486 23.1338 96.5317 23.1866 96.1268 23.1866C95.6338 23.1866 95.2289 23.0634 94.8944 22.8169C94.5599 22.5705 94.3486 22.2359 94.243 21.8486L95.493 21.4437C95.5282 21.6021 95.5986 21.7078 95.7042 21.8134C95.8099 21.9014 95.9331 21.9543 96.074 21.9543C96.3028 21.9543 96.4613 21.8838 96.5317 21.7254C96.6021 21.5669 96.655 21.3557 96.655 21.1092V17.324H98.0634V21.0916H98.0458Z" fill="#072929"></path><path d="M105.282 20.1761C105.282 20.6338 105.194 21.0387 105.035 21.4261C104.877 21.7958 104.648 22.1127 104.366 22.3944C104.085 22.6585 103.75 22.8697 103.363 23.0106C102.975 23.1514 102.553 23.2218 102.095 23.2218C101.637 23.2218 101.215 23.1514 100.827 23.0106C100.44 22.8697 100.106 22.6585 99.824 22.3944C99.5423 22.1303 99.331 21.7958 99.1726 21.4261C99.0141 21.0563 98.9261 20.6338 98.9261 20.1761C98.9261 19.7183 99.0141 19.3134 99.1726 18.9437C99.331 18.574 99.5423 18.257 99.824 17.993C100.106 17.7289 100.44 17.5352 100.827 17.3944C101.215 17.2535 101.637 17.1831 102.095 17.1831C102.553 17.1831 102.975 17.2535 103.363 17.3944C103.75 17.5352 104.085 17.7289 104.366 17.993C104.648 18.257 104.877 18.574 105.035 18.9437C105.194 19.2958 105.282 19.7183 105.282 20.1761ZM103.768 20.1761C103.768 19.9296 103.732 19.7007 103.644 19.4718C103.556 19.2606 103.451 19.0669 103.292 18.9261C103.151 18.7676 102.975 18.6444 102.764 18.5563C102.553 18.4683 102.342 18.4155 102.095 18.4155C101.849 18.4155 101.62 18.4683 101.426 18.5563C101.215 18.6444 101.056 18.7676 100.898 18.9261C100.757 19.0845 100.634 19.2606 100.546 19.4718C100.475 19.6831 100.423 19.912 100.423 20.1761C100.423 20.4401 100.458 20.669 100.546 20.8979C100.634 21.1092 100.739 21.3028 100.88 21.4613C101.021 21.6197 101.197 21.743 101.408 21.831C101.62 21.919 101.831 21.9542 102.077 21.9542C102.324 21.9542 102.553 21.919 102.747 21.831C102.958 21.743 103.116 21.6197 103.275 21.4613C103.416 21.3028 103.539 21.1268 103.627 20.8979C103.732 20.669 103.768 20.4225 103.768 20.1761Z" fill="#072929"></path><path d="M110.739 21.3909C110.739 21.7078 110.669 21.9719 110.546 22.1831C110.423 22.3944 110.246 22.5705 110.035 22.6937C109.824 22.8169 109.595 22.9226 109.313 22.9754C109.049 23.0282 108.785 23.0634 108.504 23.0634H106.18V17.324H108.504C108.732 17.324 108.961 17.3416 109.19 17.3944C109.419 17.4296 109.648 17.5176 109.824 17.6233C110.018 17.7289 110.176 17.8874 110.299 18.0634C110.423 18.2571 110.475 18.4859 110.475 18.7852C110.475 19.1021 110.387 19.3662 110.211 19.5775C110.035 19.7888 109.806 19.9296 109.525 20.0176V20.0352C109.683 20.0705 109.842 20.1057 109.982 20.1937C110.123 20.2641 110.264 20.3521 110.352 20.4754C110.458 20.581 110.546 20.7219 110.599 20.8803C110.704 21.0388 110.739 21.1972 110.739 21.3909ZM109.155 18.9965C109.155 18.8028 109.085 18.662 108.926 18.574C108.785 18.4859 108.556 18.4331 108.257 18.4331H107.57V19.6127H108.327C108.592 19.6127 108.785 19.5599 108.944 19.4543C109.067 19.3486 109.155 19.1902 109.155 18.9965ZM109.331 21.2676C109.331 21.0388 109.243 20.8627 109.067 20.7747C108.891 20.6867 108.644 20.6338 108.345 20.6338H107.57V21.9366H108.363C108.468 21.9366 108.592 21.9367 108.697 21.919C108.82 21.9014 108.926 21.8662 109.014 21.8134C109.12 21.7606 109.19 21.6902 109.261 21.6197C109.313 21.5141 109.331 21.4085 109.331 21.2676Z" fill="#072929"></path><path d="M114.753 18.8204C114.63 18.662 114.472 18.5563 114.278 18.4683C114.084 18.3803 113.908 18.3274 113.715 18.3274C113.627 18.3274 113.521 18.3274 113.433 18.345C113.345 18.3627 113.257 18.3979 113.187 18.4507C113.116 18.4859 113.046 18.5563 112.993 18.6267C112.94 18.6972 112.923 18.7852 112.923 18.9084C112.923 19.0141 112.94 19.0845 112.975 19.1549C113.011 19.2253 113.081 19.2781 113.151 19.331C113.239 19.3838 113.327 19.419 113.433 19.4718C113.539 19.507 113.662 19.5422 113.803 19.5951C113.996 19.6655 114.208 19.7359 114.419 19.8063C114.63 19.8767 114.824 19.9824 115 20.1056C115.176 20.2289 115.317 20.4049 115.44 20.5986C115.563 20.7922 115.616 21.0211 115.616 21.3028C115.616 21.6373 115.546 21.919 115.422 22.1655C115.299 22.3943 115.141 22.6056 114.93 22.7641C114.718 22.9225 114.489 23.0281 114.208 23.1162C113.944 23.1866 113.662 23.2218 113.38 23.2218C112.958 23.2218 112.553 23.1514 112.165 23.0105C111.778 22.8697 111.461 22.6584 111.197 22.3943L112.113 21.4789C112.253 21.6549 112.447 21.7958 112.676 21.919C112.905 22.0246 113.151 22.0951 113.38 22.0951C113.486 22.0951 113.592 22.0774 113.68 22.0598C113.785 22.0422 113.856 22.007 113.926 21.9542C113.996 21.9014 114.067 21.8486 114.102 21.7605C114.137 21.6725 114.173 21.5845 114.173 21.4612C114.173 21.3556 114.137 21.2676 114.084 21.1796C114.032 21.1091 113.944 21.0387 113.838 20.9859C113.732 20.9155 113.609 20.8627 113.468 20.8098C113.327 20.757 113.151 20.7042 112.958 20.6338C112.764 20.581 112.588 20.5105 112.412 20.4225C112.236 20.3345 112.077 20.2465 111.937 20.1232C111.796 20 111.69 19.8415 111.602 19.6655C111.514 19.4894 111.479 19.2605 111.479 18.9965C111.479 18.6796 111.549 18.3979 111.672 18.1866C111.796 17.9577 111.972 17.7817 112.183 17.6232C112.394 17.4824 112.641 17.3767 112.905 17.3063C113.169 17.2359 113.451 17.2007 113.715 17.2007C114.049 17.2007 114.384 17.2535 114.718 17.3767C115.07 17.5 115.37 17.676 115.616 17.9049L114.753 18.8204Z" fill="#072929"></path><path d="M93.2571 23.0634H91.7958L90.581 19.1197H90.5634L89.3486 23.0634H87.8697L86.1268 17.2359H87.7113L88.6796 21.1091H88.6972L89.7887 17.2359H91.338L92.4296 21.1091H92.4472L92.9402 19.1725L92.3768 17.2359H93.7852L94.331 19.1725L93.2571 23.0634Z" fill="#072929"></path></g><defs><clipPath id="clip0_6201_54"><rect width="115.669" height="25" fill="white"></rect></clipPath></defs></svg> 